<svg width="560" height="560" viewBox="0 0 560 560" xmlns="http://www.w3.org/2000/svg" role="img" aria-label="Person signing hello">
  <defs>
    <linearGradient id="g1" x1="0" x2="1" y1="0" y2="1">
      <stop offset="0%" stop-color="#a5b4fc"/>
      <stop offset="100%" stop-color="#f0abfc"/>
    </linearGradient>
    <filter id="s" x="-20%" y="-20%" width="140%" height="140%">
      <feDropShadow dx="0" dy="12" stdDeviation="10" flood-color="rgba(2,6,23,0.2)"/>
    </filter>
  </defs>
  <rect x="20" y="20" width="520" height="520" rx="28" fill="#ffffff"/>
  <g filter="url(#s)">
    <circle cx="280" cy="220" r="72" fill="#fde68a"/>
    <rect x="160" y="300" width="260" height="150" rx="26" fill="url(#g1)"/>
    <rect x="235" y="355" width="90" height="30" rx="15" fill="#fff"/>
    <circle cx="315" cy="370" r="8" fill="#f59e0b"/>
  </g>
  <g>
    <path d="M210 260c20 0 30-25 48-25 18 0 22 22 38 22 18 0 22-18 38-18" stroke="#4f46e5" stroke-width="8" fill="none" stroke-linecap="round"/>
    <path d="M340 170c0 10-8 18-18 18s-18-8-18-18 8-18 18-18 18 8 18 18z" fill="#f59e0b"/>
  </g>
</svg>


