<svg width="400" height="400" viewBox="0 0 400 400" fill="none" xmlns="http://www.w3.org/2000/svg">
  <!-- Hair -->
  <path d="M200 100C155 100 140 150 140 180C140 210 155 240 200 240C245 240 260 210 260 180C260 150 245 100 200 100Z" fill="#2A3158"/>
  
  <!-- Face -->
  <circle cx="200" cy="160" r="60" fill="#FFD1C2"/>
  
  <!-- Eyes -->
  <ellipse cx="180" cy="150" rx="5" ry="7" fill="#2A3158"/>
  <ellipse cx="220" cy="150" rx="5" ry="7" fill="#2A3158"/>
  
  <!-- Smile -->
  <path d="M185 170C185 170 195 180 215 170" stroke="#2A3158" stroke-width="2" stroke-linecap="round"/>
  
  <!-- Body -->
  <rect x="170" y="220" width="60" height="100" rx="10" fill="#4F46E5"/>
  
  <!-- Arms -->
  <rect x="230" y="220" width="20" height="80" rx="10" fill="#FFD1C2"/>
  
  <!-- Hand -->
  <path d="M250 240C250 240 270 230 280 250C290 270 270 280 260 270C250 260 250 240 250 240Z" fill="#FFD1C2"/>
  <path d="M260 270C260 270 270 280 280 270C290 260 290 250 280 250" stroke="#FFD1C2" stroke-width="10" stroke-linecap="round"/>
  
  <!-- Fingers -->
  <path d="M280 250C280 250 290 240 300 250" stroke="#FFD1C2" stroke-width="8" stroke-linecap="round"/>
  <path d="M280 250C280 250 290 230 305 240" stroke="#FFD1C2" stroke-width="8" stroke-linecap="round"/>
  <path d="M280 250C280 250 285 220 300 225" stroke="#FFD1C2" stroke-width="8" stroke-linecap="round"/>
</svg>